<svg width="100" height="140" viewBox="0 0 100 140" fill="none" xmlns="http://www.w3.org/2000/svg">
  <!-- BODY / WHITE COAT -->
  <path d="M15 75 Q10 80 8 130 L92 130 Q90 80 85 75 L68 65 L50 72 L32 65 Z" fill="#FFFFFF"/>
  <!-- TEAL SCRUBS -->
  <path d="M38 65 L50 72 L62 65 L58 130 L42 130 Z" fill="#4DB6AC"/>
  <path d="M42 65 L50 80 L58 65 L50 72 Z" fill="#26A69A"/>
  <!-- LAPELS -->
  <path d="M32 65 L15 75 L28 95 L42 75 Z" fill="#F5F5F5" stroke="#E0E0E0" stroke-width="0.5"/>
  <path d="M68 65 L85 75 L72 95 L58 75 Z" fill="#F5F5F5" stroke="#E0E0E0" stroke-width="0.5"/>
  <!-- BUTTONS -->
  <circle cx="50" cy="95" r="2" fill="#B0BEC5"/>
  <circle cx="50" cy="105" r="2" fill="#B0BEC5"/>
  <circle cx="50" cy="115" r="2" fill="#B0BEC5"/>
  <!-- ARMS -->
  <path d="M8 130 Q4 100 10 78 Q14 72 18 78 Q16 100 16 130 Z" fill="#FFFFFF" stroke="#E0E0E0" stroke-width="0.5"/>
  <path d="M92 130 Q96 100 90 78 Q86 72 82 78 Q84 100 84 130 Z" fill="#FFFFFF" stroke="#E0E0E0" stroke-width="0.5"/>
  <!-- STETHOSCOPE -->
  <path d="M35 70 Q22 85 22 100 Q22 112 30 114 Q38 116 40 108 Q42 100 50 100 Q58 100 60 108 Q62 116 70 114 Q78 112 78 100 Q78 85 65 70" stroke="#37474F" stroke-width="3" fill="none" stroke-linecap="round"/>
  <circle cx="50" cy="100" r="5" fill="#37474F"/>
  <circle cx="50" cy="100" r="3" fill="#546E7A"/>
  <circle cx="35" cy="70" r="3.5" fill="#37474F"/>
  <circle cx="65" cy="70" r="3.5" fill="#37474F"/>
  <!-- NECK -->
  <rect x="41" y="48" width="18" height="20" rx="7" fill="#FFCCAA"/>
  <!-- HEAD -->
  <ellipse cx="50" cy="34" rx="22" ry="23" fill="#FFCCAA"/>
  <!-- HAIR -->
  <path d="M28 28 Q28 6 50 6 Q72 6 72 28 Q70 14 50 14 Q30 14 28 28Z" fill="#1A237E"/>
  <path d="M28 28 Q20 35 18 50 Q16 65 20 80 Q24 90 26 75 Q24 60 26 45 Q28 35 30 30 Z" fill="#1A237E"/>
  <path d="M72 28 Q80 35 82 50 Q84 65 80 80 Q76 90 74 75 Q76 60 74 45 Q72 35 70 30 Z" fill="#1A237E"/>
  <path d="M50 6 Q48 12 50 14 Q52 12 50 6Z" fill="#283593"/>
  <!-- FACE -->
  <circle cx="36" cy="38" r="5" fill="#FFAB91" opacity="0.4"/>
  <circle cx="64" cy="38" r="5" fill="#FFAB91" opacity="0.4"/>
  <!-- BADGE -->
  <rect x="55" y="85" width="18" height="22" rx="3" fill="#E3F2FD" stroke="#90CAF9" stroke-width="1"/>
  <rect x="58" y="89" width="12" height="2.5" rx="1" fill="#64B5F6"/>
  <rect x="58" y="93" width="9" height="2" rx="1" fill="#BBDEFB"/>
  <rect x="58" y="97" width="10" height="2" rx="1" fill="#BBDEFB"/>
  <rect x="62" y="83" width="6" height="4" rx="1" fill="#90CAF9"/>
</svg>
